Patient4_TMGait_0pt2_03_right_26_EMG.mot
version=1
nRows=13
nColumns=33
inDegrees=no
endheader
time	1LAddLong	2LGlutMax	3LGlutMed	4LIliopsoas	5LSemiMemb	6LBicFemLong	7LRecFem	8LVastMed	9LVastLat	10LGasMed	11LTibAnt	12lTibPost	13LPeroneusLong	14LSol	15LExtDigLong	16LFlexDigLong	17RAddLong	18RGlutMax	19RGlutMed	20RIliopsoas	21RSemiMemb	22RBicFemLong	23RRecFem	24RVastMed	25RVastLat	26RGasMed	27RTibAnt	28RTibPost	29RPeroneusLong	30RSol	31RExtDigLong	32RFlexDigLong
56.82	-0.003967	0.045471	-0.028839	0.011292	0.054016	-0.020752	0.041656	-0.002289	-0.052948	0.048218	0.001221	-0.000153	0.032196	-0.028076	0.009918	0.00061	0.008698	-0.068207	-0.15976	0.27878	-0.000458	-0.059204	-0.19806	-0.079498	-0.060577	-0.005646	0.02182	-0.002747	0.41443	0.018768	-0.007324	-0.010223
56.821	-0.018921	0.069275	0.06134	-0.010071	-0.015106	-0.015564	0.023651	0.001221	-0.014191	0.053253	-0.006409	-0.001678	0.027161	-0.036621	-0.006409	0.012207	-0.021362	-0.074158	0.31586	0.14923	0.10986	0.045471	-0.11185	-0.049133	-0.087128	0.001068	0.033264	-0.003357	0.55557	0.076294	-0.004272	-0.007172
56.822	-0.01709	0.051575	0.10269	-0.003662	-0.039673	0.014191	0.054779	0.010376	-0.029144	0.10223	-0.006104	0.000305	0.020294	-0.023041	0.009308	0.005035	-0.014343	-0.084381	0.19836	0.11948	0.10666	0.082245	-0.057526	0.010376	-0.028992	-0.007324	0.055084	-0.002136	0.3624	0.075989	-0.014038	-0.00473
56.823	-0.009918	0.023041	0.073242	-0.000153	-0.083008	0.040741	0.042725	0.010529	-0.032654	0.085297	-0.009613	0.00351	0.019226	-0.031128	0.006256	0.003052	0.003967	-0.062561	-0.065155	0.090332	0.063782	0.050659	-0.029449	0.075226	0.039825	-0.012817	0.077667	-0.006256	0.082855	0.10284	-0.009766	-0.019684
56.824	-0.007477	0.023956	0.026855	0.010071	-0.072937	0.050354	0.026093	0.006409	-0.003967	-0.053711	-0.000305	0.001678	0.019836	-0.025024	0.011749	0.005341	0.01297	-0.048981	-0.11566	0.03067	-0.018921	0.047302	0.049896	0.042725	0.092926	-0.014801	0.074768	-0.00824	-0.11032	0.050964	-0.008698	-0.015259
56.825	-0.007172	0.11627	-0.002441	-0.00412	-0.017242	0.062103	0.000916	0.006561	0.027466	-0.090179	-0.005035	0.001221	0.014801	-0.029297	0.004425	0.007629	-0.005341	-0.038452	-0.12756	0.017242	-0.048676	0.073853	0.060577	0.016327	0.12146	-0.001678	0.035706	-0.006104	-0.12741	-0.045166	-0.009155	-0.008087
56.826	-0.01236	0.13062	-0.02243	-0.004272	-0.072327	0.065765	-0.02243	0.005035	0.071259	-0.054169	-0.006561	0.002594	0.022125	-0.015411	-0.001984	0.004883	-0.020599	-0.024719	-0.11429	0.029755	-0.12787	0.084839	0.034027	0.006561	0.10956	-0.006561	0.037994	-0.000916	-0.10117	-0.099792	-0.014496	-0.01297
56.827	-0.011749	0.085907	-0.03479	0.002747	-0.078125	0.025482	0.027313	0.003357	0.075378	-0.026398	-0.01297	0.005341	0.024109	-0.003357	0.00473	-0.00885	-0.014648	-0.044098	0.11185	0.02533	-0.068817	0.045776	0.1297	-0.008392	-0.004578	-0.009003	0.038605	-0.008087	0.027008	-0.076141	-0.007935	-0.014343
56.828	-0.003357	0.11002	-0.009003	-0.006866	-0.027313	-0.028381	0.034332	-0.00351	0.053558	-0.022888	0.002441	0.004425	0.035706	-0.005341	0	-0.006866	-0.005798	-0.088501	-0.19424	-0.021362	-0.14236	0.018158	-0.054169	-0.025177	-0.16296	-0.015411	0.050354	0.003815	0.083008	0.033569	-0.008087	-0.009766
56.829	0.012512	0.1001	0.003662	-0.005035	-0.009613	-0.12054	0.002289	-0.001068	0.037689	-0.010529	-0.002441	0.001373	0.017548	-0.013428	-0.003662	-0.001526	0.011902	-0.10376	-0.11612	-0.024872	0.062561	-0.12146	-0.008087	-0.055847	-0.16892	-0.014038	0.030823	-0.00351	0.2562	0.10788	-0.011597	-0.00885
56.83	0.011597	0.065308	0.003204	0.009003	0.062714	-0.10178	0.036926	0.002289	0.010071	0.012054	-0.005646	-0.001831	0.020905	-0.021973	0.011902	-0.006256	0.017395	-0.071869	0.036774	-0.030975	-0.055695	-0.09201	-0.04303	-0.098419	-0.14099	-0.021057	0.050964	-0.000763	0.30304	0.085754	-0.014191	-0.017242
56.831	0.007324	0.095825	-0.029907	0.011597	0.10941	-0.088806	0.072937	0.007782	-0.032654	0.007019	0.002441	0.007172	0.016937	0.001984	0.01297	-0.002747	0.020905	-0.047913	-0.088959	-0.05127	-0.13428	-0.026245	-0.16464	-0.05722	-0.010071	-0.025482	0.013885	-0.003967	0.22308	0.15503	-0.016937	-0.005341
56.832	0.002899	0.097961	0.036316	0.006866	0.094604	-0.04364	0.10117	-0.003052	-0.028839	-0.000916	0.007782	-0.000458	0.006409	-0.017395	0.004425	-0.008545	0.007324	-0.077972	-0.12222	-0.066071	-0.13229	0.036774	-0.35858	-0.046082	0.007782	-0.010986	0.009766	-0.001678	0.12177	0.2478	-0.018921	-0.011444
